<?xml version="1.0" standalone="no"?>
<!DOCTYPE svg PUBLIC "-//W3C//DTD SVG 20010904//EN"
 "http://www.w3.org/TR/2001/REC-SVG-20010904/DTD/svg10.dtd">
<svg version="1.0" xmlns="http://www.w3.org/2000/svg"
 width="512.000000pt" height="512.000000pt" viewBox="0 0 512.000000 512.000000"
 preserveAspectRatio="xMidYMid meet">
<metadata>
Created by potrace 1.14, written by Peter Selinger 2001-2017
</metadata>
<g transform="translate(0.000000,512.000000) scale(0.100000,-0.100000)"
fill="#000000" stroke="none">
<path d="M3415 4863 c-66 -23 -136 -93 -158 -158 -34 -98 -17 -198 56 -340 49
-93 168 -219 259 -273 276 -164 541 -72 541 188 0 322 -424 677 -698 583z
m118 -160 c-13 -2 -33 -2 -45 0 -13 2 -3 4 22 4 25 0 35 -2 23 -4z m-90 -27
c-10 -13 -20 -22 -22 -20 -4 4 29 44 36 44 2 0 -4 -11 -14 -24z m267 -42 c0
-2 -9 0 -20 6 -11 6 -20 13 -20 16 0 2 9 0 20 -6 11 -6 20 -13 20 -16z m35
-24 c10 -11 16 -20 13 -20 -3 0 -13 9 -23 20 -10 11 -16 20 -13 20 3 0 13 -9
23 -20z m55 -45 c13 -14 21 -25 18 -25 -2 0 -15 11 -28 25 -13 14 -21 25 -18
25 2 0 15 -11 28 -25z m51 -62 c13 -16 12 -17 -3 -4 -10 7 -18 15 -18 17 0 8
8 3 21 -13z m57 -98 c-3 -3 -9 2 -12 12 -6 14 -5 15 5 6 7 -7 10 -15 7 -18z
m-393 -25 c10 -11 16 -20 13 -20 -3 0 -13 9 -23 20 -10 11 -16 20 -13 20 3 0
13 -9 23 -20z m51 -62 l29 -33 -32 29 c-31 28 -38 36 -30 36 2 0 16 -15 33
-32z m55 -45 c13 -16 12 -17 -3 -4 -17 13 -22 21 -14 21 2 0 10 -8 17 -17z
m98 -59 c14 -12 -19 -1 -35 12 -18 14 -18 14 6 3 14 -6 27 -13 29 -15z m211 2
c0 -2 -8 -10 -17 -17 -16 -13 -17 -12 -4 4 13 16 21 21 21 13z"/>
<path d="M615 4326 c-169 -39 -295 -122 -419 -277 -95 -119 -162 -271 -186
-419 -58 -371 157 -792 526 -1032 l62 -39 -9 -38 c-44 -194 -63 -428 -49 -603
35 -462 224 -849 581 -1193 279 -268 574 -419 949 -487 149 -26 423 -28 585
-4 299 46 563 132 880 286 367 179 815 487 1037 713 243 246 420 596 497 982
37 187 46 277 45 500 0 245 -13 348 -66 515 -55 172 -128 299 -236 412 -124
129 -269 200 -411 200 -173 0 -278 -88 -289 -241 -6 -88 14 -155 84 -286 70
-132 96 -229 97 -365 0 -129 -19 -216 -74 -326 -37 -76 -139 -214 -158 -214
-5 0 -37 37 -72 82 -216 280 -570 654 -879 929 -622 553 -1200 873 -1483 820
-87 -16 -128 -43 -202 -131 l-67 -80 -73 67 c-146 137 -357 232 -525 239 -50
2 -110 -2 -145 -10z m219 -171 c130 -34 246 -99 348 -195 l71 -66 -73 -107
-74 -106 -76 73 c-141 134 -267 171 -391 114 -76 -35 -111 -67 -149 -139 -115
-216 -64 -444 147 -658 l93 -95 -43 -123 -43 -124 -60 44 c-139 103 -251 232
-318 366 -65 127 -89 223 -90 351 -1 136 15 206 75 327 56 116 182 249 283
298 110 55 198 66 300 40z m1029 -109 c544 -183 1452 -950 2049 -1733 7 -9
-10 -22 -59 -46 -184 -92 -353 -130 -578 -130 -375 0 -574 85 -631 266 -12 38
-18 120 -24 312 -10 282 -21 368 -68 488 -67 172 -240 346 -447 449 -117 59
-320 108 -447 108 l-46 0 -16 48 c-9 26 -19 72 -23 103 -14 133 21 174 142
166 39 -3 105 -17 148 -31z m-370 -455 c270 -618 1101 -1545 1892 -2108 228
-163 473 -296 657 -358 l98 -33 -67 -50 c-365 -269 -821 -493 -1191 -586 -207
-53 -274 -60 -512 -60 -195 0 -239 3 -326 22 -283 61 -527 186 -751 382 -285
249 -479 571 -554 918 -30 141 -37 418 -15 577 65 466 277 952 629 1444 l60
84 22 -74 c12 -41 38 -112 58 -158z m-657 103 c22 -12 71 -55 108 -94 63 -67
66 -73 53 -93 -27 -42 -147 -265 -167 -311 -12 -25 -25 -46 -30 -46 -20 0
-133 139 -163 199 -28 59 -32 76 -32 151 0 76 3 91 30 139 22 41 40 59 70 72
45 20 72 17 131 -17z m3597 -21 c-7 -2 -21 -2 -30 0 -10 3 -4 5 12 5 17 0 24
-2 18 -5z m-93 -17 c0 -2 -7 -7 -16 -10 -8 -3 -12 -2 -9 4 6 10 25 14 25 6z
m-49 -43 c-12 -20 -14 -14 -5 12 4 9 9 14 11 11 3 -2 0 -13 -6 -23z m264 17
c3 -6 -1 -7 -9 -4 -18 7 -21 14 -7 14 6 0 13 -4 16 -10z m56 -37 c13 -16 12
-17 -3 -4 -17 13 -22 21 -14 21 2 0 10 -8 17 -17z m-2818 -20 c-7 -2 -19 -2
-25 0 -7 3 -2 5 12 5 14 0 19 -2 13 -5z m2892 -43 c27 -27 47 -50 44 -50 -3 0
-27 23 -54 50 -27 28 -47 50 -44 50 3 0 27 -22 54 -50z m-2838 34 c-3 -3 -12
-4 -19 -1 -8 3 -5 6 6 6 11 1 17 -2 13 -5z m2440 -26 c-3 -8 -6 -5 -6 6 -1 11
2 17 5 13 3 -3 4 -12 1 -19z m-2557 -18 c6 -11 8 -20 6 -20 -3 0 -10 9 -16 20
-6 11 -8 20 -6 20 3 0 10 -9 16 -20z m2589 -60 c11 -24 11 -24 -3 -6 -9 11
-16 24 -16 30 0 12 5 7 19 -24z m432 -7 c13 -16 12 -17 -3 -4 -10 7 -18 15
-18 17 0 8 8 3 21 -13z m-2580 -40 c13 -16 12 -17 -3 -4 -10 7 -18 15 -18 17
0 8 8 3 21 -13z m-371 -13 c6 -11 8 -20 6 -20 -3 0 -10 9 -16 20 -6 11 -8 20
-6 20 3 0 10 -9 16 -20z m2565 -20 c9 -16 13 -30 11 -30 -3 0 -12 14 -21 30
-9 17 -13 30 -11 30 3 0 12 -13 21 -30z m-2105 -45 c35 -36 62 -65 59 -65 -2
0 -34 29 -69 65 -35 36 -62 65 -59 65 2 0 34 -29 69 -65z m2545 35 c9 -16 13
-30 11 -30 -3 0 -12 14 -21 30 -9 17 -13 30 -11 30 3 0 12 -13 21 -30z m-2975
-20 c6 -11 8 -20 6 -20 -3 0 -10 9 -16 20 -6 11 -8 20 -6 20 3 0 10 -9 16 -20z
m2570 -45 c0 -5 -5 -3 -10 5 -5 8 -10 20 -10 25 0 6 5 3 10 -5 5 -8 10 -19 10
-25z m450 -30 c0 -5 -5 -3 -10 5 -5 8 -10 20 -10 25 0 6 5 3 10 -5 5 -8 10
-19 10 -25z m-2926 -72 c20 -32 27 -46 14 -31 -26 30 -62 88 -55 88 2 0 21
-26 41 -57z m417 40 c13 -16 12 -17 -3 -4 -17 13 -22 21 -14 21 2 0 10 -8 17
-17z m37 -68 c-3 -3 -9 2 -12 12 -6 14 -5 15 5 6 7 -7 10 -15 7 -18z m2079
-67 c-3 -8 -6 -5 -6 6 -1 11 2 17 5 13 3 -3 4 -12 1 -19z m-2447 -28 c12 -16
19 -30 16 -30 -2 0 -14 14 -26 30 -12 17 -19 30 -16 30 2 0 14 -13 26 -30z
m2457 -42 c-3 -7 -5 -2 -5 12 0 14 2 19 5 13 2 -7 2 -19 0 -25z m450 10 c-3
-8 -6 -5 -6 6 -1 11 2 17 5 13 3 -3 4 -12 1 -19z m-2866 -25 c13 -16 12 -17
-3 -4 -10 7 -18 15 -18 17 0 8 8 3 21 -13z m376 -5 c-3 -8 -6 -5 -6 6 -1 11 2
17 5 13 3 -3 4 -12 1 -19z m2500 -30 c-3 -7 -5 -2 -5 12 0 14 2 19 5 13 2 -7
2 -19 0 -25z m-2846 -5 c13 -16 12 -17 -3 -4 -10 7 -18 15 -18 17 0 8 8 3 21
-13z m356 -35 c-3 -7 -5 -2 -5 12 0 14 2 19 5 13 2 -7 2 -19 0 -25z m-326 -5
c13 -16 12 -17 -3 -4 -10 7 -18 15 -18 17 0 8 8 3 21 -13z m2826 -25 c-3 -7
-5 -2 -5 12 0 14 2 19 5 13 2 -7 2 -19 0 -25z m-2792 -18 c10 -11 16 -20 13
-20 -3 0 -13 9 -23 20 -10 11 -16 20 -13 20 3 0 13 -9 23 -20z m45 -55 c13
-14 21 -25 18 -25 -2 0 -15 11 -28 25 -13 14 -21 25 -18 25 2 0 15 -11 28 -25z
m258 -215 l-3 -81 -60 63 -60 63 58 -55 57 -54 2 154 c1 90 3 121 5 73 2 -46
3 -119 1 -163z m2019 198 c-3 -7 -5 -2 -5 12 0 14 2 19 5 13 2 -7 2 -19 0 -25z
m480 -70 c-2 -18 -4 -4 -4 32 0 36 2 50 4 33 2 -18 2 -48 0 -65z m-2707 27
c13 -14 21 -25 18 -25 -2 0 -15 11 -28 25 -13 14 -21 25 -18 25 2 0 15 -11 28
-25z m2217 -17 c-3 -8 -6 -5 -6 6 -1 11 2 17 5 13 3 -3 4 -12 1 -19z m-2161
-50 l29 -33 -32 29 c-18 17 -33 31 -33 33 0 8 8 1 36 -29z m2651 -115 c-2 -21
-4 -4 -4 37 0 41 2 58 4 38 2 -21 2 -55 0 -75z m-587 -103 c-6 -11 -13 -20
-16 -20 -2 0 0 9 6 20 6 11 13 20 16 20 2 0 0 -9 -6 -20z m577 -27 c-3 -10 -5
-4 -5 12 0 17 2 24 5 18 2 -7 2 -21 0 -30z m-607 -22 c-5 -11 -15 -23 -21 -27
-6 -3 -3 5 6 20 20 30 30 35 15 7z m597 -63 c-3 -7 -5 -2 -5 12 0 14 2 19 5
13 2 -7 2 -19 0 -25z m-627 18 c0 -2 -8 -10 -17 -17 -16 -13 -17 -12 -4 4 13
16 21 21 21 13z m-30 -39 c0 -1 -30 -32 -67 -67 l-68 -65 65 68 c60 62 70 72
70 64z m647 -49 c-3 -7 -5 -2 -5 12 0 14 2 19 5 13 2 -7 2 -19 0 -25z m-10
-50 c-3 -8 -6 -5 -6 6 -1 11 2 17 5 13 3 -3 4 -12 1 -19z m-777 -32 c0 -2 -8
-10 -17 -17 -16 -13 -17 -12 -4 4 13 16 21 21 21 13z m767 -18 c-3 -8 -6 -5
-6 6 -1 11 2 17 5 13 3 -3 4 -12 1 -19z m-867 -53 c0 -2 -10 -9 -22 -15 -22
-11 -22 -10 -4 4 21 17 26 19 26 11z m210 -240 c-41 -41 -77 -75 -79 -75 -3 0
28 34 69 75 41 41 77 75 79 75 3 0 -28 -34 -69 -75z m181 58 c13 -16 12 -17
-3 -4 -17 13 -22 21 -14 21 2 0 10 -8 17 -17z m-844 1 c-3 -3 -12 -4 -19 -1
-8 3 -5 6 6 6 11 1 17 -2 13 -5z m-507 -8 c0 -9 -30 -14 -35 -6 -4 6 3 10 14
10 12 0 21 -2 21 -4z m453 -3 c-7 -2 -19 -2 -25 0 -7 3 -2 5 12 5 14 0 19 -2
13 -5z m-345 -10 c-10 -2 -28 -2 -40 0 -13 2 -5 4 17 4 22 1 32 -1 23 -4z
m265 0 c-7 -2 -21 -2 -30 0 -10 3 -4 5 12 5 17 0 24 -2 18 -5z m-353 -28 c13
-14 21 -25 18 -25 -2 0 -15 11 -28 25 -13 14 -21 25 -18 25 2 0 15 -11 28 -25z
m65 -55 c10 -11 16 -20 13 -20 -3 0 -13 9 -23 20 -10 11 -16 20 -13 20 3 0 13
-9 23 -20z m1275 -13 c0 -1 -37 -38 -82 -82 l-83 -80 80 83 c74 76 85 87 85
79z m-1225 -27 c10 -11 16 -20 13 -20 -3 0 -13 9 -23 20 -10 11 -16 20 -13 20
3 0 13 -9 23 -20z m945 7 c0 -2 -10 -12 -22 -23 l-23 -19 19 23 c18 21 26 27
26 19z m-895 -47 c10 -11 16 -20 13 -20 -3 0 -13 9 -23 20 -10 11 -16 20 -13
20 3 0 13 -9 23 -20z m1481 -49 c-15 -28 -28 -51 -31 -51 -3 0 7 25 22 55 15
30 29 53 31 51 2 -2 -8 -27 -22 -55z m-1376 -38 c0 -2 -18 10 -40 27 -22 17
-40 34 -40 37 0 2 18 -10 40 -27 22 -17 40 -34 40 -37z m650 32 c0 -2 -13 -11
-30 -20 -38 -19 -40 -11 -2 9 31 17 32 18 32 11z m-619 -52 c13 -16 12 -17 -3
-4 -10 7 -18 15 -18 17 0 8 8 3 21 -13z m869 14 c0 -2 -10 -12 -22 -23 l-23
-19 19 23 c18 21 26 27 26 19z m-370 -27 c-8 -5 -19 -10 -25 -10 -5 0 -3 5 5
10 8 5 20 10 25 10 6 0 3 -5 -5 -10z m320 -14 c0 -2 -8 -10 -17 -17 -16 -13
-17 -12 -4 4 13 16 21 21 21 13z m-749 -23 c13 -16 12 -17 -3 -4 -10 7 -18 15
-18 17 0 8 8 3 21 -13z m236 -29 c-3 -3 -12 -4 -19 -1 -8 3 -5 6 6 6 11 1 17
-2 13 -5z m443 1 c0 -2 -10 -9 -22 -15 -22 -11 -22 -10 -4 4 21 17 26 19 26
11z m-493 -11 c-3 -3 -12 -4 -19 -1 -8 3 -5 6 6 6 11 1 17 -2 13 -5z m-64 -11
c-7 -2 -19 -2 -25 0 -7 3 -2 5 12 5 14 0 19 -2 13 -5z m507 -8 c0 -6 -97 -55
-107 -55 -4 1 17 14 47 30 61 32 60 32 60 25z m540 -14 c-5 -11 -15 -23 -21
-27 -6 -3 -3 5 6 20 20 30 30 35 15 7z m-50 -74 c0 -2 -10 -12 -22 -23 l-23
-19 19 23 c18 21 26 27 26 19z m-810 -47 c0 -5 -2 -10 -4 -10 -3 0 -8 5 -11
10 -3 6 -1 10 4 10 6 0 11 -4 11 -10z m770 -3 c0 -2 -15 -16 -32 -33 l-33 -29
29 33 c28 30 36 37 36 29z m-720 -33 c0 -2 -9 0 -20 6 -11 6 -20 13 -20 16 0
2 9 0 20 -6 11 -6 20 -13 20 -16z m650 -47 c0 -2 -15 -16 -32 -33 l-33 -29 29
33 c28 30 36 37 36 29z m-80 -70 c0 -2 -10 -12 -22 -23 l-23 -19 19 23 c18 21
26 27 26 19z m-157 -44 c-7 -2 -19 -2 -25 0 -7 3 -2 5 12 5 14 0 19 -2 13 -5z
m104 1 c-3 -3 -12 -4 -19 -1 -8 3 -5 6 6 6 11 1 17 -2 13 -5z"/>
<path d="M1918 2220 c-100 -17 -239 -75 -337 -142 -67 -46 -187 -164 -236
-233 -59 -83 -111 -189 -137 -282 -32 -113 -32 -273 0 -366 105 -303 427 -417
780 -276 317 126 562 470 562 788 0 154 -46 275 -140 372 -117 120 -299 171
-492 139z m105 -167 c-7 -2 -21 -2 -30 0 -10 3 -4 5 12 5 17 0 24 -2 18 -5z
m70 0 c-7 -2 -19 -2 -25 0 -7 3 -2 5 12 5 14 0 19 -2 13 -5z m-146 -9 c-3 -3
-12 -4 -19 -1 -8 3 -5 6 6 6 11 1 17 -2 13 -5z m198 -4 c3 -6 -1 -7 -9 -4 -18
7 -21 14 -7 14 6 0 13 -4 16 -10z m-356 -44 c-2 -2 -15 -9 -29 -15 -24 -11
-24 -11 -6 3 16 13 49 24 35 12z m527 -67 c19 -22 19 -22 -3 -8 -13 8 -23 17
-23 21 0 12 6 9 26 -13z m-666 -12 c0 -1 -33 -34 -72 -72 l-73 -70 70 73 c64
67 75 77 75 69z m457 -19 c-3 -8 -6 -5 -6 6 -1 11 2 17 5 13 3 -3 4 -12 1 -19z
m170 -60 c-3 -7 -5 -2 -5 12 0 14 2 19 5 13 2 -7 2 -19 0 -25z m-180 -10 c-3
-8 -6 -5 -6 6 -1 11 2 17 5 13 3 -3 4 -12 1 -19z m280 -60 c-3 -7 -5 -2 -5 12
0 14 2 19 5 13 2 -7 2 -19 0 -25z m-867 -2 c0 -2 -8 -10 -17 -17 -16 -13 -17
-12 -4 4 13 16 21 21 21 13z m-46 -61 c-9 -14 -18 -25 -21 -25 -5 0 5 18 20
38 17 22 18 13 1 -13z m586 22 c0 -2 -12 -14 -27 -28 l-28 -24 24 28 c23 25
31 32 31 24z m-60 -52 c0 -2 -10 -9 -22 -15 -22 -11 -22 -10 -4 4 21 17 26 19
26 11z m220 -24 c-5 -11 -15 -23 -21 -27 -6 -3 -3 5 6 20 20 30 30 35 15 7z
m167 -23 c-3 -7 -5 -2 -5 12 0 14 2 19 5 13 2 -7 2 -19 0 -25z m-550 -4 c-3
-3 -12 -4 -19 -1 -8 3 -5 6 6 6 11 1 17 -2 13 -5z m353 -17 c0 -2 -15 -16 -32
-33 l-33 -29 29 33 c28 30 36 37 36 29z m-590 -102 c-24 -25 -46 -45 -49 -45
-3 0 15 20 39 45 24 25 46 45 49 45 3 0 -15 -20 -39 -45z m515 35 c-3 -5 -16
-15 -28 -21 -19 -9 -19 -8 3 10 28 23 34 26 25 11z m-158 -76 c-3 -3 -12 -4
-19 -1 -8 3 -5 6 6 6 11 1 17 -2 13 -5z m-64 -11 c-7 -2 -21 -2 -30 0 -10 3
-4 5 12 5 17 0 24 -2 18 -5z m-526 -105 c-2 -18 -4 -4 -4 32 0 36 2 50 4 33 2
-18 2 -48 0 -65z m383 59 c0 -2 -15 -16 -32 -33 l-33 -29 29 33 c28 30 36 37
36 29z m510 -70 c0 -2 -10 -12 -22 -23 l-23 -19 19 23 c18 21 26 27 26 19z
m-783 -69 c-3 -8 -6 -5 -6 6 -1 11 2 17 5 13 3 -3 4 -12 1 -19z m703 -23 c-24
-25 -46 -45 -49 -45 -3 0 15 20 39 45 24 25 46 45 49 45 3 0 -15 -20 -39 -45z
m-533 -32 c-3 -10 -5 -4 -5 12 0 17 2 24 5 18 2 -7 2 -21 0 -30z m-238 -13
c11 -24 11 -24 -3 -6 -9 11 -16 24 -16 30 0 12 5 7 19 -24z m58 -2 c-3 -8 -6
-5 -6 6 -1 11 2 17 5 13 3 -3 4 -12 1 -19z m643 -12 c0 -2 -8 -10 -17 -17 -16
-13 -17 -12 -4 4 13 16 21 21 21 13z m-669 -33 c13 -16 12 -17 -3 -4 -17 13
-22 21 -14 21 2 0 10 -8 17 -17z m216 -119 c-3 -3 -12 -4 -19 -1 -8 3 -5 6 6
6 11 1 17 -2 13 -5z m136 -1 c-7 -2 -19 -2 -25 0 -7 3 -2 5 12 5 14 0 19 -2
13 -5z"/>
</g>
</svg>
